<mxfile host="65bd71144e">
    <diagram id="8CMFNA5Vm8T_UHcx_9b5" name="Страница 1">
        <mxGraphModel dx="943" dy="1050" grid="0" gridSize="10" guides="1" tooltips="1" connect="1" arrows="1" fold="1" page="0" pageScale="1" pageWidth="827" pageHeight="1169" background="none" math="0" shadow="1">
            <root>
                <mxCell id="0"/>
                <mxCell id="1" parent="0"/>
                <mxCell id="87" value="Users" style="shape=table;startSize=30;container=1;collapsible=0;childLayout=tableLayout;fixedRows=1;rowLines=0;fontStyle=1;align=center;pointerEvents=1;sketch=1;hachureGap=4;fontFamily=Architects Daughter;fontSource=https%3A%2F%2Ffonts.googleapis.com%2Fcss%3Ffamily%3DArchitects%2BDaughter;fontSize=20;" parent="1" vertex="1">
                    <mxGeometry x="328" y="200" width="180" height="150" as="geometry"/>
                </mxCell>
                <mxCell id="88" value="" style="shape=partialRectangle;html=1;whiteSpace=wrap;collapsible=0;dropTarget=0;pointerEvents=1;fillColor=none;top=0;left=0;bottom=1;right=0;points=[[0,0.5],[1,0.5]];portConstraint=eastwest;sketch=1;hachureGap=4;fontFamily=Architects Daughter;fontSource=https%3A%2F%2Ffonts.googleapis.com%2Fcss%3Ffamily%3DArchitects%2BDaughter;fontSize=20;" parent="87" vertex="1">
                    <mxGeometry y="30" width="180" height="30" as="geometry"/>
                </mxCell>
                <mxCell id="89" value="1" style="shape=partialRectangle;html=1;whiteSpace=wrap;connectable=0;fillColor=none;top=0;left=0;bottom=0;right=0;overflow=hidden;pointerEvents=1;sketch=1;hachureGap=4;fontFamily=Architects Daughter;fontSource=https%3A%2F%2Ffonts.googleapis.com%2Fcss%3Ffamily%3DArchitects%2BDaughter;fontSize=20;" parent="88" vertex="1">
                    <mxGeometry width="41" height="30" as="geometry">
                        <mxRectangle width="41" height="30" as="alternateBounds"/>
                    </mxGeometry>
                </mxCell>
                <mxCell id="90" value="Nickname" style="shape=partialRectangle;html=1;whiteSpace=wrap;connectable=0;fillColor=none;top=0;left=0;bottom=0;right=0;align=left;spacingLeft=6;overflow=hidden;pointerEvents=1;sketch=1;hachureGap=4;fontFamily=Architects Daughter;fontSource=https%3A%2F%2Ffonts.googleapis.com%2Fcss%3Ffamily%3DArchitects%2BDaughter;fontSize=20;" parent="88" vertex="1">
                    <mxGeometry x="41" width="139" height="30" as="geometry">
                        <mxRectangle width="139" height="30" as="alternateBounds"/>
                    </mxGeometry>
                </mxCell>
                <mxCell id="91" value="" style="shape=partialRectangle;html=1;whiteSpace=wrap;collapsible=0;dropTarget=0;pointerEvents=1;fillColor=none;top=0;left=0;bottom=0;right=0;points=[[0,0.5],[1,0.5]];portConstraint=eastwest;sketch=1;hachureGap=4;fontFamily=Architects Daughter;fontSource=https%3A%2F%2Ffonts.googleapis.com%2Fcss%3Ffamily%3DArchitects%2BDaughter;fontSize=20;" parent="87" vertex="1">
                    <mxGeometry y="60" width="180" height="30" as="geometry"/>
                </mxCell>
                <mxCell id="92" value="2" style="shape=partialRectangle;html=1;whiteSpace=wrap;connectable=0;fillColor=none;top=0;left=0;bottom=0;right=0;overflow=hidden;pointerEvents=1;sketch=1;hachureGap=4;fontFamily=Architects Daughter;fontSource=https%3A%2F%2Ffonts.googleapis.com%2Fcss%3Ffamily%3DArchitects%2BDaughter;fontSize=20;" parent="91" vertex="1">
                    <mxGeometry width="41" height="30" as="geometry">
                        <mxRectangle width="41" height="30" as="alternateBounds"/>
                    </mxGeometry>
                </mxCell>
                <mxCell id="93" value="Biography" style="shape=partialRectangle;html=1;whiteSpace=wrap;connectable=0;fillColor=none;top=0;left=0;bottom=0;right=0;align=left;spacingLeft=6;overflow=hidden;pointerEvents=1;sketch=1;hachureGap=4;fontFamily=Architects Daughter;fontSource=https%3A%2F%2Ffonts.googleapis.com%2Fcss%3Ffamily%3DArchitects%2BDaughter;fontSize=20;" parent="91" vertex="1">
                    <mxGeometry x="41" width="139" height="30" as="geometry">
                        <mxRectangle width="139" height="30" as="alternateBounds"/>
                    </mxGeometry>
                </mxCell>
                <mxCell id="94" value="" style="shape=partialRectangle;html=1;whiteSpace=wrap;collapsible=0;dropTarget=0;pointerEvents=1;fillColor=none;top=0;left=0;bottom=0;right=0;points=[[0,0.5],[1,0.5]];portConstraint=eastwest;sketch=1;hachureGap=4;fontFamily=Architects Daughter;fontSource=https%3A%2F%2Ffonts.googleapis.com%2Fcss%3Ffamily%3DArchitects%2BDaughter;fontSize=20;" parent="87" vertex="1">
                    <mxGeometry y="90" width="180" height="30" as="geometry"/>
                </mxCell>
                <mxCell id="95" value="3" style="shape=partialRectangle;html=1;whiteSpace=wrap;connectable=0;fillColor=none;top=0;left=0;bottom=0;right=0;overflow=hidden;pointerEvents=1;sketch=1;hachureGap=4;fontFamily=Architects Daughter;fontSource=https%3A%2F%2Ffonts.googleapis.com%2Fcss%3Ffamily%3DArchitects%2BDaughter;fontSize=20;" parent="94" vertex="1">
                    <mxGeometry width="41" height="30" as="geometry">
                        <mxRectangle width="41" height="30" as="alternateBounds"/>
                    </mxGeometry>
                </mxCell>
                <mxCell id="96" value="Email" style="shape=partialRectangle;html=1;whiteSpace=wrap;connectable=0;fillColor=none;top=0;left=0;bottom=0;right=0;align=left;spacingLeft=6;overflow=hidden;pointerEvents=1;sketch=1;hachureGap=4;fontFamily=Architects Daughter;fontSource=https%3A%2F%2Ffonts.googleapis.com%2Fcss%3Ffamily%3DArchitects%2BDaughter;fontSize=20;" parent="94" vertex="1">
                    <mxGeometry x="41" width="139" height="30" as="geometry">
                        <mxRectangle width="139" height="30" as="alternateBounds"/>
                    </mxGeometry>
                </mxCell>
                <mxCell id="97" value="4" style="text;html=1;align=center;verticalAlign=middle;resizable=0;points=[];autosize=1;strokeColor=none;fillColor=none;sketch=1;hachureGap=4;fontFamily=Architects Daughter;fontSource=https%3A%2F%2Ffonts.googleapis.com%2Fcss%3Ffamily%3DArchitects%2BDaughter;fontSize=20;" parent="1" vertex="1">
                    <mxGeometry x="334" y="318" width="24" height="28" as="geometry"/>
                </mxCell>
                <mxCell id="98" value="Password" style="text;html=1;align=center;verticalAlign=middle;resizable=0;points=[];autosize=1;strokeColor=none;fillColor=none;sketch=1;hachureGap=4;fontFamily=Architects Daughter;fontSource=https%3A%2F%2Ffonts.googleapis.com%2Fcss%3Ffamily%3DArchitects%2BDaughter;fontSize=20;" parent="1" vertex="1">
                    <mxGeometry x="372" y="320" width="102" height="28" as="geometry"/>
                </mxCell>
                <mxCell id="101" value="" style="line;strokeWidth=2;html=1;sketch=1;hachureGap=4;fontFamily=Architects Daughter;fontSource=https%3A%2F%2Ffonts.googleapis.com%2Fcss%3Ffamily%3DArchitects%2BDaughter;fontSize=20;" parent="1" vertex="1">
                    <mxGeometry x="338" y="289" width="160" height="10" as="geometry"/>
                </mxCell>
                <mxCell id="102" value="" style="line;strokeWidth=2;html=1;sketch=1;hachureGap=4;fontFamily=Architects Daughter;fontSource=https%3A%2F%2Ffonts.googleapis.com%2Fcss%3Ffamily%3DArchitects%2BDaughter;fontSize=20;" parent="1" vertex="1">
                    <mxGeometry x="338" y="318" width="160" height="10" as="geometry"/>
                </mxCell>
                <mxCell id="103" value="Pets" style="shape=table;startSize=30;container=1;collapsible=0;childLayout=tableLayout;fixedRows=1;rowLines=0;fontStyle=1;align=center;pointerEvents=1;sketch=1;hachureGap=4;fontFamily=Architects Daughter;fontSource=https%3A%2F%2Ffonts.googleapis.com%2Fcss%3Ffamily%3DArchitects%2BDaughter;fontSize=20;" parent="1" vertex="1">
                    <mxGeometry x="647" y="204" width="180" height="146.64285714285717" as="geometry"/>
                </mxCell>
                <mxCell id="104" value="" style="shape=partialRectangle;html=1;whiteSpace=wrap;collapsible=0;dropTarget=0;pointerEvents=1;fillColor=none;top=0;left=0;bottom=1;right=0;points=[[0,0.5],[1,0.5]];portConstraint=eastwest;sketch=1;hachureGap=4;fontFamily=Architects Daughter;fontSource=https%3A%2F%2Ffonts.googleapis.com%2Fcss%3Ffamily%3DArchitects%2BDaughter;fontSize=20;" parent="103" vertex="1">
                    <mxGeometry y="30" width="180" height="27" as="geometry"/>
                </mxCell>
                <mxCell id="105" value="1" style="shape=partialRectangle;html=1;whiteSpace=wrap;connectable=0;fillColor=none;top=0;left=0;bottom=0;right=0;overflow=hidden;pointerEvents=1;sketch=1;hachureGap=4;fontFamily=Architects Daughter;fontSource=https%3A%2F%2Ffonts.googleapis.com%2Fcss%3Ffamily%3DArchitects%2BDaughter;fontSize=20;" parent="104" vertex="1">
                    <mxGeometry width="40" height="27" as="geometry">
                        <mxRectangle width="40" height="27" as="alternateBounds"/>
                    </mxGeometry>
                </mxCell>
                <mxCell id="106" value="Name" style="shape=partialRectangle;html=1;whiteSpace=wrap;connectable=0;fillColor=none;top=0;left=0;bottom=0;right=0;align=left;spacingLeft=6;overflow=hidden;pointerEvents=1;sketch=1;hachureGap=4;fontFamily=Architects Daughter;fontSource=https%3A%2F%2Ffonts.googleapis.com%2Fcss%3Ffamily%3DArchitects%2BDaughter;fontSize=20;" parent="104" vertex="1">
                    <mxGeometry x="40" width="140" height="27" as="geometry">
                        <mxRectangle width="140" height="27" as="alternateBounds"/>
                    </mxGeometry>
                </mxCell>
                <mxCell id="107" value="" style="shape=partialRectangle;html=1;whiteSpace=wrap;collapsible=0;dropTarget=0;pointerEvents=1;fillColor=none;top=0;left=0;bottom=0;right=0;points=[[0,0.5],[1,0.5]];portConstraint=eastwest;sketch=1;hachureGap=4;fontFamily=Architects Daughter;fontSource=https%3A%2F%2Ffonts.googleapis.com%2Fcss%3Ffamily%3DArchitects%2BDaughter;fontSize=20;" parent="103" vertex="1">
                    <mxGeometry y="57" width="180" height="30" as="geometry"/>
                </mxCell>
                <mxCell id="108" value="2" style="shape=partialRectangle;html=1;whiteSpace=wrap;connectable=0;fillColor=none;top=0;left=0;bottom=0;right=0;overflow=hidden;pointerEvents=1;sketch=1;hachureGap=4;fontFamily=Architects Daughter;fontSource=https%3A%2F%2Ffonts.googleapis.com%2Fcss%3Ffamily%3DArchitects%2BDaughter;fontSize=20;" parent="107" vertex="1">
                    <mxGeometry width="40" height="30" as="geometry">
                        <mxRectangle width="40" height="30" as="alternateBounds"/>
                    </mxGeometry>
                </mxCell>
                <mxCell id="109" value="Type" style="shape=partialRectangle;html=1;whiteSpace=wrap;connectable=0;fillColor=none;top=0;left=0;bottom=0;right=0;align=left;spacingLeft=6;overflow=hidden;pointerEvents=1;sketch=1;hachureGap=4;fontFamily=Architects Daughter;fontSource=https%3A%2F%2Ffonts.googleapis.com%2Fcss%3Ffamily%3DArchitects%2BDaughter;fontSize=20;" parent="107" vertex="1">
                    <mxGeometry x="40" width="140" height="30" as="geometry">
                        <mxRectangle width="140" height="30" as="alternateBounds"/>
                    </mxGeometry>
                </mxCell>
                <mxCell id="110" value="" style="shape=partialRectangle;html=1;whiteSpace=wrap;collapsible=0;dropTarget=0;pointerEvents=1;fillColor=none;top=0;left=0;bottom=0;right=0;points=[[0,0.5],[1,0.5]];portConstraint=eastwest;sketch=1;hachureGap=4;fontFamily=Architects Daughter;fontSource=https%3A%2F%2Ffonts.googleapis.com%2Fcss%3Ffamily%3DArchitects%2BDaughter;fontSize=20;" parent="103" vertex="1">
                    <mxGeometry y="87" width="180" height="30" as="geometry"/>
                </mxCell>
                <mxCell id="111" value="3" style="shape=partialRectangle;html=1;whiteSpace=wrap;connectable=0;fillColor=none;top=0;left=0;bottom=0;right=0;overflow=hidden;pointerEvents=1;sketch=1;hachureGap=4;fontFamily=Architects Daughter;fontSource=https%3A%2F%2Ffonts.googleapis.com%2Fcss%3Ffamily%3DArchitects%2BDaughter;fontSize=20;" parent="110" vertex="1">
                    <mxGeometry width="40" height="30" as="geometry">
                        <mxRectangle width="40" height="30" as="alternateBounds"/>
                    </mxGeometry>
                </mxCell>
                <mxCell id="112" value="Information" style="shape=partialRectangle;html=1;whiteSpace=wrap;connectable=0;fillColor=none;top=0;left=0;bottom=0;right=0;align=left;spacingLeft=6;overflow=hidden;pointerEvents=1;sketch=1;hachureGap=4;fontFamily=Architects Daughter;fontSource=https%3A%2F%2Ffonts.googleapis.com%2Fcss%3Ffamily%3DArchitects%2BDaughter;fontSize=20;" parent="110" vertex="1">
                    <mxGeometry x="40" width="140" height="30" as="geometry">
                        <mxRectangle width="140" height="30" as="alternateBounds"/>
                    </mxGeometry>
                </mxCell>
                <mxCell id="113" value="4" style="text;html=1;align=center;verticalAlign=middle;resizable=0;points=[];autosize=1;strokeColor=none;fillColor=none;sketch=1;hachureGap=4;fontFamily=Architects Daughter;fontSource=https%3A%2F%2Ffonts.googleapis.com%2Fcss%3Ffamily%3DArchitects%2BDaughter;fontSize=20;" parent="1" vertex="1">
                    <mxGeometry x="656" y="323" width="24" height="28" as="geometry"/>
                </mxCell>
                <mxCell id="114" value="Photo" style="text;html=1;align=center;verticalAlign=middle;resizable=0;points=[];autosize=1;strokeColor=none;fillColor=none;sketch=1;hachureGap=4;fontFamily=Architects Daughter;fontSource=https%3A%2F%2Ffonts.googleapis.com%2Fcss%3Ffamily%3DArchitects%2BDaughter;fontSize=20;" parent="1" vertex="1">
                    <mxGeometry x="705.5" y="323" width="63" height="28" as="geometry"/>
                </mxCell>
                <mxCell id="115" value="" style="line;strokeWidth=2;html=1;sketch=1;hachureGap=4;fontFamily=Architects Daughter;fontSource=https%3A%2F%2Ffonts.googleapis.com%2Fcss%3Ffamily%3DArchitects%2BDaughter;fontSize=20;" parent="1" vertex="1">
                    <mxGeometry x="656" y="289" width="160" height="10" as="geometry"/>
                </mxCell>
                <mxCell id="116" value="" style="line;strokeWidth=2;html=1;sketch=1;hachureGap=4;fontFamily=Architects Daughter;fontSource=https%3A%2F%2Ffonts.googleapis.com%2Fcss%3Ffamily%3DArchitects%2BDaughter;fontSize=20;" parent="1" vertex="1">
                    <mxGeometry x="650" y="318" width="160" height="10" as="geometry"/>
                </mxCell>
                <mxCell id="117" value="Posts" style="shape=table;startSize=30;container=1;collapsible=0;childLayout=tableLayout;fixedRows=1;rowLines=0;fontStyle=1;align=center;pointerEvents=1;sketch=1;hachureGap=4;fontFamily=Architects Daughter;fontSource=https%3A%2F%2Ffonts.googleapis.com%2Fcss%3Ffamily%3DArchitects%2BDaughter;fontSize=20;" parent="1" vertex="1">
                    <mxGeometry x="476" y="-29" width="180" height="120" as="geometry"/>
                </mxCell>
                <mxCell id="118" value="" style="shape=partialRectangle;html=1;whiteSpace=wrap;collapsible=0;dropTarget=0;pointerEvents=1;fillColor=none;top=0;left=0;bottom=1;right=0;points=[[0,0.5],[1,0.5]];portConstraint=eastwest;sketch=1;hachureGap=4;fontFamily=Architects Daughter;fontSource=https%3A%2F%2Ffonts.googleapis.com%2Fcss%3Ffamily%3DArchitects%2BDaughter;fontSize=20;" parent="117" vertex="1">
                    <mxGeometry y="30" width="180" height="30" as="geometry"/>
                </mxCell>
                <mxCell id="119" value="1" style="shape=partialRectangle;html=1;whiteSpace=wrap;connectable=0;fillColor=none;top=0;left=0;bottom=0;right=0;overflow=hidden;pointerEvents=1;sketch=1;hachureGap=4;fontFamily=Architects Daughter;fontSource=https%3A%2F%2Ffonts.googleapis.com%2Fcss%3Ffamily%3DArchitects%2BDaughter;fontSize=20;" parent="118" vertex="1">
                    <mxGeometry width="40" height="30" as="geometry">
                        <mxRectangle width="40" height="30" as="alternateBounds"/>
                    </mxGeometry>
                </mxCell>
                <mxCell id="120" value="Text" style="shape=partialRectangle;html=1;whiteSpace=wrap;connectable=0;fillColor=none;top=0;left=0;bottom=0;right=0;align=left;spacingLeft=6;overflow=hidden;pointerEvents=1;sketch=1;hachureGap=4;fontFamily=Architects Daughter;fontSource=https%3A%2F%2Ffonts.googleapis.com%2Fcss%3Ffamily%3DArchitects%2BDaughter;fontSize=20;" parent="118" vertex="1">
                    <mxGeometry x="40" width="140" height="30" as="geometry">
                        <mxRectangle width="140" height="30" as="alternateBounds"/>
                    </mxGeometry>
                </mxCell>
                <mxCell id="121" value="" style="shape=partialRectangle;html=1;whiteSpace=wrap;collapsible=0;dropTarget=0;pointerEvents=1;fillColor=none;top=0;left=0;bottom=0;right=0;points=[[0,0.5],[1,0.5]];portConstraint=eastwest;sketch=1;hachureGap=4;fontFamily=Architects Daughter;fontSource=https%3A%2F%2Ffonts.googleapis.com%2Fcss%3Ffamily%3DArchitects%2BDaughter;fontSize=20;" parent="117" vertex="1">
                    <mxGeometry y="60" width="180" height="30" as="geometry"/>
                </mxCell>
                <mxCell id="122" value="2" style="shape=partialRectangle;html=1;whiteSpace=wrap;connectable=0;fillColor=none;top=0;left=0;bottom=0;right=0;overflow=hidden;pointerEvents=1;sketch=1;hachureGap=4;fontFamily=Architects Daughter;fontSource=https%3A%2F%2Ffonts.googleapis.com%2Fcss%3Ffamily%3DArchitects%2BDaughter;fontSize=20;" parent="121" vertex="1">
                    <mxGeometry width="40" height="30" as="geometry">
                        <mxRectangle width="40" height="30" as="alternateBounds"/>
                    </mxGeometry>
                </mxCell>
                <mxCell id="123" value="Title" style="shape=partialRectangle;html=1;whiteSpace=wrap;connectable=0;fillColor=none;top=0;left=0;bottom=0;right=0;align=left;spacingLeft=6;overflow=hidden;pointerEvents=1;sketch=1;hachureGap=4;fontFamily=Architects Daughter;fontSource=https%3A%2F%2Ffonts.googleapis.com%2Fcss%3Ffamily%3DArchitects%2BDaughter;fontSize=20;" parent="121" vertex="1">
                    <mxGeometry x="40" width="140" height="30" as="geometry">
                        <mxRectangle width="140" height="30" as="alternateBounds"/>
                    </mxGeometry>
                </mxCell>
                <mxCell id="124" value="" style="shape=partialRectangle;html=1;whiteSpace=wrap;collapsible=0;dropTarget=0;pointerEvents=1;fillColor=none;top=0;left=0;bottom=0;right=0;points=[[0,0.5],[1,0.5]];portConstraint=eastwest;sketch=1;hachureGap=4;fontFamily=Architects Daughter;fontSource=https%3A%2F%2Ffonts.googleapis.com%2Fcss%3Ffamily%3DArchitects%2BDaughter;fontSize=20;" parent="117" vertex="1">
                    <mxGeometry y="90" width="180" height="30" as="geometry"/>
                </mxCell>
                <mxCell id="125" value="3" style="shape=partialRectangle;html=1;whiteSpace=wrap;connectable=0;fillColor=none;top=0;left=0;bottom=0;right=0;overflow=hidden;pointerEvents=1;sketch=1;hachureGap=4;fontFamily=Architects Daughter;fontSource=https%3A%2F%2Ffonts.googleapis.com%2Fcss%3Ffamily%3DArchitects%2BDaughter;fontSize=20;" parent="124" vertex="1">
                    <mxGeometry width="40" height="30" as="geometry">
                        <mxRectangle width="40" height="30" as="alternateBounds"/>
                    </mxGeometry>
                </mxCell>
                <mxCell id="126" value="Photo" style="shape=partialRectangle;html=1;whiteSpace=wrap;connectable=0;fillColor=none;top=0;left=0;bottom=0;right=0;align=left;spacingLeft=6;overflow=hidden;pointerEvents=1;sketch=1;hachureGap=4;fontFamily=Architects Daughter;fontSource=https%3A%2F%2Ffonts.googleapis.com%2Fcss%3Ffamily%3DArchitects%2BDaughter;fontSize=20;" parent="124" vertex="1">
                    <mxGeometry x="40" width="140" height="30" as="geometry">
                        <mxRectangle width="140" height="30" as="alternateBounds"/>
                    </mxGeometry>
                </mxCell>
                <mxCell id="127" value="" style="line;strokeWidth=2;html=1;sketch=1;hachureGap=4;fontFamily=Architects Daughter;fontSource=https%3A%2F%2Ffonts.googleapis.com%2Fcss%3Ffamily%3DArchitects%2BDaughter;fontSize=20;" parent="1" vertex="1">
                    <mxGeometry x="487" y="55" width="160" height="10" as="geometry"/>
                </mxCell>
                <mxCell id="128" value="" style="edgeStyle=elbowEdgeStyle;elbow=horizontal;endArrow=classic;html=1;rounded=0;sketch=1;hachureGap=4;fontFamily=Architects Daughter;fontSource=https%3A%2F%2Ffonts.googleapis.com%2Fcss%3Ffamily%3DArchitects%2BDaughter;fontSize=16;startSize=14;endSize=14;sourcePerimeterSpacing=8;targetPerimeterSpacing=8;curved=1;exitX=0.601;exitY=-0.031;exitDx=0;exitDy=0;exitPerimeter=0;" parent="1" source="87" edge="1">
                    <mxGeometry width="50" height="50" relative="1" as="geometry">
                        <mxPoint x="440" y="182" as="sourcePoint"/>
                        <mxPoint x="539" y="128" as="targetPoint"/>
                    </mxGeometry>
                </mxCell>
                <mxCell id="129" value="" style="edgeStyle=elbowEdgeStyle;elbow=horizontal;endArrow=classic;html=1;rounded=0;sketch=1;hachureGap=4;fontFamily=Architects Daughter;fontSource=https%3A%2F%2Ffonts.googleapis.com%2Fcss%3Ffamily%3DArchitects%2BDaughter;fontSize=16;startSize=14;endSize=14;sourcePerimeterSpacing=8;targetPerimeterSpacing=8;curved=1;entryX=-0.021;entryY=0.153;entryDx=0;entryDy=0;entryPerimeter=0;" parent="1" target="104" edge="1">
                    <mxGeometry width="50" height="50" relative="1" as="geometry">
                        <mxPoint x="516" y="306" as="sourcePoint"/>
                        <mxPoint x="566" y="256" as="targetPoint"/>
                    </mxGeometry>
                </mxCell>
                <mxCell id="130" value="Comments" style="shape=table;startSize=30;container=1;collapsible=0;childLayout=tableLayout;fixedRows=1;rowLines=0;fontStyle=1;align=center;pointerEvents=1;sketch=1;hachureGap=4;fontFamily=Architects Daughter;fontSource=https%3A%2F%2Ffonts.googleapis.com%2Fcss%3Ffamily%3DArchitects%2BDaughter;fontSize=20;" parent="1" vertex="1">
                    <mxGeometry x="705.5" y="-41" width="191.71" height="120" as="geometry"/>
                </mxCell>
                <mxCell id="131" value="" style="shape=partialRectangle;html=1;whiteSpace=wrap;collapsible=0;dropTarget=0;pointerEvents=1;fillColor=none;top=0;left=0;bottom=1;right=0;points=[[0,0.5],[1,0.5]];portConstraint=eastwest;sketch=1;hachureGap=4;fontFamily=Architects Daughter;fontSource=https%3A%2F%2Ffonts.googleapis.com%2Fcss%3Ffamily%3DArchitects%2BDaughter;fontSize=20;" parent="130" vertex="1">
                    <mxGeometry y="30" width="191.71" height="30" as="geometry"/>
                </mxCell>
                <mxCell id="132" value="1" style="shape=partialRectangle;html=1;whiteSpace=wrap;connectable=0;fillColor=none;top=0;left=0;bottom=0;right=0;overflow=hidden;pointerEvents=1;sketch=1;hachureGap=4;fontFamily=Architects Daughter;fontSource=https%3A%2F%2Ffonts.googleapis.com%2Fcss%3Ffamily%3DArchitects%2BDaughter;fontSize=20;" parent="131" vertex="1">
                    <mxGeometry width="40" height="30" as="geometry">
                        <mxRectangle width="40" height="30" as="alternateBounds"/>
                    </mxGeometry>
                </mxCell>
                <mxCell id="133" value="Comment_text" style="shape=partialRectangle;html=1;whiteSpace=wrap;connectable=0;fillColor=none;top=0;left=0;bottom=0;right=0;align=left;spacingLeft=6;overflow=hidden;pointerEvents=1;sketch=1;hachureGap=4;fontFamily=Architects Daughter;fontSource=https%3A%2F%2Ffonts.googleapis.com%2Fcss%3Ffamily%3DArchitects%2BDaughter;fontSize=20;" parent="131" vertex="1">
                    <mxGeometry x="40" width="152" height="30" as="geometry">
                        <mxRectangle width="152" height="30" as="alternateBounds"/>
                    </mxGeometry>
                </mxCell>
                <mxCell id="134" value="" style="shape=partialRectangle;html=1;whiteSpace=wrap;collapsible=0;dropTarget=0;pointerEvents=1;fillColor=none;top=0;left=0;bottom=0;right=0;points=[[0,0.5],[1,0.5]];portConstraint=eastwest;sketch=1;hachureGap=4;fontFamily=Architects Daughter;fontSource=https%3A%2F%2Ffonts.googleapis.com%2Fcss%3Ffamily%3DArchitects%2BDaughter;fontSize=20;" parent="130" vertex="1">
                    <mxGeometry y="60" width="191.71" height="30" as="geometry"/>
                </mxCell>
                <mxCell id="135" value="2" style="shape=partialRectangle;html=1;whiteSpace=wrap;connectable=0;fillColor=none;top=0;left=0;bottom=0;right=0;overflow=hidden;pointerEvents=1;sketch=1;hachureGap=4;fontFamily=Architects Daughter;fontSource=https%3A%2F%2Ffonts.googleapis.com%2Fcss%3Ffamily%3DArchitects%2BDaughter;fontSize=20;" parent="134" vertex="1">
                    <mxGeometry width="40" height="30" as="geometry">
                        <mxRectangle width="40" height="30" as="alternateBounds"/>
                    </mxGeometry>
                </mxCell>
                <mxCell id="136" value="User_id" style="shape=partialRectangle;html=1;whiteSpace=wrap;connectable=0;fillColor=none;top=0;left=0;bottom=0;right=0;align=left;spacingLeft=6;overflow=hidden;pointerEvents=1;sketch=1;hachureGap=4;fontFamily=Architects Daughter;fontSource=https%3A%2F%2Ffonts.googleapis.com%2Fcss%3Ffamily%3DArchitects%2BDaughter;fontSize=20;" parent="134" vertex="1">
                    <mxGeometry x="40" width="152" height="30" as="geometry">
                        <mxRectangle width="152" height="30" as="alternateBounds"/>
                    </mxGeometry>
                </mxCell>
                <mxCell id="137" value="" style="shape=partialRectangle;html=1;whiteSpace=wrap;collapsible=0;dropTarget=0;pointerEvents=1;fillColor=none;top=0;left=0;bottom=0;right=0;points=[[0,0.5],[1,0.5]];portConstraint=eastwest;sketch=1;hachureGap=4;fontFamily=Architects Daughter;fontSource=https%3A%2F%2Ffonts.googleapis.com%2Fcss%3Ffamily%3DArchitects%2BDaughter;fontSize=20;" parent="130" vertex="1">
                    <mxGeometry y="90" width="191.71" height="30" as="geometry"/>
                </mxCell>
                <mxCell id="138" value="3" style="shape=partialRectangle;html=1;whiteSpace=wrap;connectable=0;fillColor=none;top=0;left=0;bottom=0;right=0;overflow=hidden;pointerEvents=1;sketch=1;hachureGap=4;fontFamily=Architects Daughter;fontSource=https%3A%2F%2Ffonts.googleapis.com%2Fcss%3Ffamily%3DArchitects%2BDaughter;fontSize=20;" parent="137" vertex="1">
                    <mxGeometry width="40" height="30" as="geometry">
                        <mxRectangle width="40" height="30" as="alternateBounds"/>
                    </mxGeometry>
                </mxCell>
                <mxCell id="139" value="Post_id" style="shape=partialRectangle;html=1;whiteSpace=wrap;connectable=0;fillColor=none;top=0;left=0;bottom=0;right=0;align=left;spacingLeft=6;overflow=hidden;pointerEvents=1;sketch=1;hachureGap=4;fontFamily=Architects Daughter;fontSource=https%3A%2F%2Ffonts.googleapis.com%2Fcss%3Ffamily%3DArchitects%2BDaughter;fontSize=20;" parent="137" vertex="1">
                    <mxGeometry x="40" width="152" height="30" as="geometry">
                        <mxRectangle width="152" height="30" as="alternateBounds"/>
                    </mxGeometry>
                </mxCell>
                <mxCell id="140" value="" style="edgeStyle=elbowEdgeStyle;elbow=vertical;endArrow=classic;html=1;rounded=0;sketch=1;hachureGap=4;fontFamily=Architects Daughter;fontSource=https%3A%2F%2Ffonts.googleapis.com%2Fcss%3Ffamily%3DArchitects%2BDaughter;fontSize=16;startSize=14;endSize=14;sourcePerimeterSpacing=8;targetPerimeterSpacing=8;curved=1;entryX=0.25;entryY=1;entryDx=0;entryDy=0;exitX=0.894;exitY=-0.012;exitDx=0;exitDy=0;exitPerimeter=0;" parent="1" source="87" target="130" edge="1">
                    <mxGeometry width="50" height="50" relative="1" as="geometry">
                        <mxPoint x="462" y="255" as="sourcePoint"/>
                        <mxPoint x="512" y="205" as="targetPoint"/>
                        <Array as="points">
                            <mxPoint x="794" y="147"/>
                            <mxPoint x="605" y="167"/>
                            <mxPoint x="605" y="148"/>
                            <mxPoint x="576" y="174"/>
                        </Array>
                    </mxGeometry>
                </mxCell>
                <mxCell id="141" value="" style="edgeStyle=elbowEdgeStyle;elbow=vertical;endArrow=classic;html=1;rounded=0;sketch=1;hachureGap=4;fontFamily=Architects Daughter;fontSource=https%3A%2F%2Ffonts.googleapis.com%2Fcss%3Ffamily%3DArchitects%2BDaughter;fontSize=16;startSize=14;endSize=14;sourcePerimeterSpacing=8;targetPerimeterSpacing=8;curved=1;entryX=0.25;entryY=0;entryDx=0;entryDy=0;" parent="1" target="130" edge="1">
                    <mxGeometry width="50" height="50" relative="1" as="geometry">
                        <mxPoint x="639" y="-33" as="sourcePoint"/>
                        <mxPoint x="643" y="-77" as="targetPoint"/>
                        <Array as="points">
                            <mxPoint x="672" y="-75"/>
                        </Array>
                    </mxGeometry>
                </mxCell>
                <mxCell id="142" value="" style="line;strokeWidth=2;html=1;sketch=1;hachureGap=4;fontFamily=Architects Daughter;fontSource=https%3A%2F%2Ffonts.googleapis.com%2Fcss%3Ffamily%3DArchitects%2BDaughter;fontSize=20;" parent="1" vertex="1">
                    <mxGeometry x="721.36" y="45" width="160" height="10" as="geometry"/>
                </mxCell>
                <mxCell id="143" value="" style="line;strokeWidth=2;html=1;sketch=1;hachureGap=4;fontFamily=Architects Daughter;fontSource=https%3A%2F%2Ffonts.googleapis.com%2Fcss%3Ffamily%3DArchitects%2BDaughter;fontSize=20;" parent="1" vertex="1">
                    <mxGeometry x="705.5" y="76" width="160" height="10" as="geometry"/>
                </mxCell>
                <mxCell id="144" value="5" style="text;html=1;align=center;verticalAlign=middle;resizable=0;points=[];autosize=1;strokeColor=none;fillColor=none;sketch=1;hachureGap=4;fontFamily=Architects Daughter;fontSource=https%3A%2F%2Ffonts.googleapis.com%2Fcss%3Ffamily%3DArchitects%2BDaughter;fontSize=20;" parent="1" vertex="1">
                    <mxGeometry x="655" y="350" width="24" height="28" as="geometry"/>
                </mxCell>
                <mxCell id="145" value="Gender_id" style="text;html=1;align=center;verticalAlign=middle;resizable=0;points=[];autosize=1;strokeColor=none;fillColor=none;sketch=1;hachureGap=4;fontFamily=Architects Daughter;fontSource=https%3A%2F%2Ffonts.googleapis.com%2Fcss%3Ffamily%3DArchitects%2BDaughter;fontSize=20;" parent="1" vertex="1">
                    <mxGeometry x="693" y="350" width="104" height="28" as="geometry"/>
                </mxCell>
                <mxCell id="149" value="" style="shape=stencil(lZbLbsMgEEW/hi2CwYBZp+l/RIpTo7p25Livvy8WbRJlrKnujpBz58WAR7ndpT+cO0XmsszTa/eZj0uv3JMiymPfzXkpK+X2yu1O09y9zNP7eKy/z4eVXFdv08dq4avqrDHamFVG5rtuXTeeq2DI43+CECGB04R58DpaSBC1xzxYo6PHFA2sSGhUBPtw8Ok5j/poLJpHE9GoPMGKIObRXlviTxDkI4/+0UNoxJgCMQ9ySJ7lEJImQeBYDlE+CmI5RCd6sCyHWxk2BfzmBTEizregffkSMb61mP2WxAJxXi4o5xuQB+tfeKw+AbQPnm8rX/0tHrMP9k/hMfvylWR8kh/gLV56IzhvQZ6wfBPYzwns5+RBHuzPJL+5nI9gPGB/JrA/E9ifhZemL84nLJ67L+2voCxu0+QpD0MdRu//f5w+y1adXN3+Bw==);fillColor=none;sketch=0;hachureGap=4;fontFamily=Architects Daughter;fontSource=https%3A%2F%2Ffonts.googleapis.com%2Fcss%3Ffamily%3DArchitects%2BDaughter;fontSize=20;" vertex="1" parent="1">
                    <mxGeometry x="647" y="351" width="1" height="27" as="geometry"/>
                </mxCell>
                <mxCell id="150" value="" style="shape=stencil(rVbLbsMgEPwaX0fAsjzOafsfkeI0VtM4StLX3xfLUpuYiGqk3gAzZmdndqGT1Xm3PvadM+fLaXzpP4bNZdfJQ+fccNj1p+FSRp08drLajqf++TS+HTbz/Liedk6j1/F9+sPnjLPGwJgJ5szXvPSz8DQD9sPhnwEWygEE04wAeDihAIqsFCDBeo60QSLTJAgcbRugmUNkpEghihieRERWDTHIHA/xiJweUhRMnKksy9x7BE5zH6HcGWporztkLipVaOAQiS3ZYGE4HsHDWA4RkDnNQ2arNjoELqqosFyuYoTn9IiZ7bnJQrhcpeIrrgaTh3K5SgGGq49UckXyyDCNyyALot4AsmlKXiLQ2xOya/aeknq3OEGa7a04aMEhF081OIRUcQjwDYMEV3GITUdpqDgk+AYHrXTIRYeGy+8CtNFCfC1cqe5GSFIJd+WW+4hKub8QrpauHZStpWvTThBZ7pdGv6nTmpr3xb397sbdZfD7/twO+/38fL3+vnyvlqX5rSuP3w==);fillColor=none;sketch=0;hachureGap=4;fontFamily=Architects Daughter;fontSource=https%3A%2F%2Ffonts.googleapis.com%2Fcss%3Ffamily%3DArchitects%2BDaughter;fontSize=20;" vertex="1" parent="1">
                    <mxGeometry x="687" y="323" width="2" height="56" as="geometry"/>
                </mxCell>
                <mxCell id="153" value="" style="shape=stencil(lVddb9swDPw1fj1IokiJz133Pwo0XYxlSZGm+/j3k2EMq5XN9r3J1p0l3pGiNcjD2/Hp9TCk8Ha7Xr4efozPt+Mgn4aUxvPxcB1vbTTI4yAPL5fr4cv18n5+np9fnybkNPp2+T594efMCwhhIqXwq3vxeYafxvMCrkrAE0Il4AKPBFwRMwEvECHgDmfgMcEZaaIhGoN3CKNl075SeENm1Gz6FGe8FQTGXFE4o49UGONXjpz+WZCZeLPCEoMvMKYSs0OZ72uEMN9X4WpXMyqjpxqUKvaKyNSXkvlppD7W6ovZv2UkZv/W8ofR3woikw9WoYxfhewUpelZGHxCoU7zjEDhFXnpl/0x5N94Q1ni2wmvawuUvgHEirK2giMuV2gdbS2EGpCWBCmrW6oRaXkm6rpINSEtk8LWg67SV2XZiKH1+GUaTZtcUalm6LKO60bQ2qvksupDI5TOuLAhk/W67mBYZhmeOEbpzdvBUDKO0p96m4za95EdDCHjuOv9OxhdGm4yWrWScTgymVetZ3FxeJsuLCNzDjaGc354hHJaeep/zjcZgsTVh991jB0MJ3dFnyV+9x+0ybjr9DsYRmYJXbWNkcldVVTSD7oGG6PrHluMD/P/p7TB3wv1y3g6zffxj/P9Bby9mi/v8vgb);fillColor=none;sketch=0;hachureGap=4;fontFamily=Architects Daughter;fontSource=https%3A%2F%2Ffonts.googleapis.com%2Fcss%3Ffamily%3DArchitects%2BDaughter;fontSize=20;" vertex="1" parent="1">
                    <mxGeometry x="648" y="376" width="182.5" height="2" as="geometry"/>
                </mxCell>
                <mxCell id="154" value="" style="shape=stencil(lZXdbsMgDIWfJrdHgAHDdde9R6WmS7SsqdJ0P28/okhbGyRvviOOP5uDDW5od+0Ol7Zx5jpP42v70R/nrqGnxrn+3LVTP5dVQ/uGdqdxal+m8XY+rt+Xw+K5rN7G9yXC58pZY2DMgjnztZp+DM8rMPTnv4BoVYAHBxWQkFgFWAvvdERATirClRxRRzAiqQgicNYRGazL4QOSkCMxwiMQHIxQPw7bDIHBwklFt81QLJLsUGmIDCvUmyoNbMBCuV2lgQlZ6sFKA0ewcC0qCZzhBAn1nbAImviJEIQi1P6lLbzGP8EKjVf5ZwOv2X928EIBan+PoDnPHEFCV9f+palV8csjpjn/nEGq+BlJs/+7l+DfCcJDQ5TF71g59cOwTqX7/9sxVEzrCKP9Nw==);fillColor=none;sketch=0;hachureGap=4;fontFamily=Architects Daughter;fontSource=https%3A%2F%2Ffonts.googleapis.com%2Fcss%3Ffamily%3DArchitects%2BDaughter;fontSize=20;" vertex="1" parent="1">
                    <mxGeometry x="827" y="330" width="1" height="54.75" as="geometry"/>
                </mxCell>
                <mxCell id="156" value="" style="shape=stencil(lZTbboMwDIafJrdWYufk6659j0qlIyqDitId3n5BkbaSiEi5M4YP+/9lW9Dh0Z/vnUD5WObp1n2Fy9ILehOIYey7OSwxEnQUdLhOc/c+T8/xkp7v5/XLNfqYPtc/fCdOSQlSrhjKn5T6S5wSMISxDiiQvgmwoE1bBQRu7MkC6yYCCRw3EaTAt+nQEgj3CY4tmC3AoCpNeQdmW8HUvfUKcFvBalBqH3Am1+AUkNsHrM81OAe6ItpirsEjoN0HTGGrt4AVl6hwyTNwpSUqXGIEVxknLFxiA642sYVojk1WtqgccJnvaQz+t/wahiEdidf3+VWIqXRR6PgL);fillColor=none;sketch=0;hachureGap=4;fontFamily=Architects Daughter;fontSource=https%3A%2F%2Ffonts.googleapis.com%2Fcss%3Ffamily%3DArchitects%2BDaughter;fontSize=20;" vertex="1" parent="1">
                    <mxGeometry x="368" y="318" width="2" height="31" as="geometry"/>
                </mxCell>
                <mxCell id="157" value="6&lt;br&gt;" style="text;html=1;align=center;verticalAlign=middle;resizable=0;points=[];autosize=1;strokeColor=none;fillColor=none;sketch=1;hachureGap=4;fontFamily=Architects Daughter;fontSource=https%3A%2F%2Ffonts.googleapis.com%2Fcss%3Ffamily%3DArchitects%2BDaughter;fontSize=20;" vertex="1" parent="1">
                    <mxGeometry x="654" y="376" width="23" height="28" as="geometry"/>
                </mxCell>
                <mxCell id="159" value="User_id" style="text;html=1;align=center;verticalAlign=middle;resizable=0;points=[];autosize=1;strokeColor=none;fillColor=none;sketch=1;hachureGap=4;fontFamily=Architects Daughter;fontSource=https%3A%2F%2Ffonts.googleapis.com%2Fcss%3Ffamily%3DArchitects%2BDaughter;fontSize=20;" vertex="1" parent="1">
                    <mxGeometry x="703" y="378" width="80" height="28" as="geometry"/>
                </mxCell>
                <mxCell id="160" value="4" style="text;html=1;align=center;verticalAlign=middle;resizable=0;points=[];autosize=1;strokeColor=none;fillColor=none;sketch=1;hachureGap=4;fontFamily=Architects Daughter;fontSource=https%3A%2F%2Ffonts.googleapis.com%2Fcss%3Ffamily%3DArchitects%2BDaughter;fontSize=20;" vertex="1" parent="1">
                    <mxGeometry x="483" y="93" width="24" height="28" as="geometry"/>
                </mxCell>
                <mxCell id="161" value="User_id" style="text;html=1;align=center;verticalAlign=middle;resizable=0;points=[];autosize=1;strokeColor=none;fillColor=none;sketch=1;hachureGap=4;fontFamily=Architects Daughter;fontSource=https%3A%2F%2Ffonts.googleapis.com%2Fcss%3Ffamily%3DArchitects%2BDaughter;fontSize=20;" vertex="1" parent="1">
                    <mxGeometry x="522" y="90" width="80" height="28" as="geometry"/>
                </mxCell>
                <mxCell id="163" value="" style="shape=stencil(lZTbbsMwCIafxrcIG59y3XXvUanpYi1LqjQ7vf0cedoqO2PijpD/M2Awig634XTtlcHbuszP/Xs6r4OiB2VMmoZ+SWu2FB0VHS7z0j8t8+t0Lt/X06bcrJf5bTvho3AIiBtk8LNyPBb5mCZOrkF3ArkFI5F78CSQR7BRkrsBdBK9BwwCffY4K9E7sJJ8CCFKekWBrTdfh6u6RRAYIOdbRXD89OQEqgjOg2EiuHYifpLcBXxTg49ADBCaGgKB938DsakhRHDMWGhs55QAmcHYI/5pXUt0yL6dPYLYm9ojPFhhjA60FhF3rm8kG7/b7JLGsSzD+//19suusjnp+AU=);fillColor=none;sketch=0;hachureGap=4;fontFamily=Architects Daughter;fontSource=https%3A%2F%2Ffonts.googleapis.com%2Fcss%3Ffamily%3DArchitects%2BDaughter;fontSize=20;" vertex="1" parent="1">
                    <mxGeometry x="477" y="89" width="1" height="28" as="geometry"/>
                </mxCell>
                <mxCell id="164" value="" style="shape=stencil(lZbbTsMwDIafpre/kjgnXw94j0nrWMVYp22c3p5UlRhJRY3v0sRf7djxoaPN9bA9950z19tlfOk/ht3t0NFD59xwOvSX4VZWHT12tNmPl/75Mr6ddvP3eTtJTqvX8X36w+fMGRgzQc58zRv3nadZ/jicKnnLGnmL6ej/8g5RJU+IViMf4FX/T4hedV8DpzLIEiypgAibVQAjBlUMCKQyqXjJqEwigxRVgIdXxYEyjEqDtwjNpcM6ENrUIUFDbt1K6xrCwiQvPG6PUMchCEBCSBUQ14Fy3ORPEgCCq+OQBSCAa5Pyupdihq8BFlLaINdu5XUNaZGi1ggqAlzWEQmOdQTDeRVRPN+4ViRcW/5EwqutCoisCUeO4FqFEPC8qAXCk8oMUwdceLQFSPUdhLQoFvsaEBKPLWzdV4TULkCsy5NQPNjB1BqE8lQAqt0qFMACpKY3ChpIWcQL0NQCGWCdBm0j4kWbkIGo6r4cQaqZhlMbaRnQTUGc26ovA0k1ozDDNrVMeEvcutX+jDl/Abm+g5VGv8Uw3QJlcR/E98PxOM/xv8/bwb1szUM/PX4D);fillColor=none;sketch=0;hachureGap=4;fontFamily=Architects Daughter;fontSource=https%3A%2F%2Ffonts.googleapis.com%2Fcss%3Ffamily%3DArchitects%2BDaughter;fontSize=20;" vertex="1" parent="1">
                    <mxGeometry x="483" y="118.5" width="180" height="2.5" as="geometry"/>
                </mxCell>
                <mxCell id="165" value="" style="shape=stencil(rZTRboMwDEW/Jq+WYydO8tx1/1GpdKAxqCjd1r8vKOo2ETWSpb0Z44O5dnIN7y7t4dwYwss8je/NV3ecW8Mvhqgb2mbq5iUyvDe8O41T8zaN1+GYn8+HtXKNPsbP9QvfmbOIgLhihLec+km8ZqDvhn8GGDCqAAGfVEAE8SrAEnidCBuArYrQ66YEzLrRevC6Ho4g6IbrEqBTEd4D6XqIBRQdIRArs4rhseAHEAgsPQeC33YIAq6iW2jbIWJVti+PLYMNzwEuNESpjokKDTFCqu2u0JAscOUqFRJS/TiV9Q6osray3oNURlTWi/J/YvWSljaAW/tbgl+3PXV9n8367/utOy+p7Oy8vwM=);fillColor=none;sketch=0;hachureGap=4;fontFamily=Architects Daughter;fontSource=https%3A%2F%2Ffonts.googleapis.com%2Fcss%3Ffamily%3DArchitects%2BDaughter;fontSize=20;" vertex="1" parent="1">
                    <mxGeometry x="659" y="93" width="1" height="26" as="geometry"/>
                </mxCell>
                <mxCell id="166" value="" style="shape=stencil(rVXLbsMgEPwaX0fAAgvnNP2PSHFqq24cOU4ff18sS2nlSKgj9bbALOwM+2hkd+0Ol7Zx5jpP42v70R/nrpGnxrn+3LVTPxerkX0ju9M4tS/TeDsf1/XlsCAX6218X274XP0MjFmcnPnabDyv8KE//yPcIioBF2QGHhAiAU8QYWJ3sIHBR45sEScw8bgI9YyYDi4zeEVi+HqBZ3LBJ0TL/K7AMvoE5fhGC8vEEz1CYvAKZe5Xg8TwVeH01Ahh9NGE5JjysnBM/qQSP6NnClCq3Ml8Tpn732whjD7ZVfOhtJuwcfDwlYIv7W/7QqhmUCnw7QsRqUI5PHJQ5ArneG+Bd4cMU2mK1jy2UVOfMX9yKcbPBDz1w7AO0N/n24lZttZpK/tv);fillColor=none;sketch=0;hachureGap=4;fontFamily=Architects Daughter;fontSource=https%3A%2F%2Ffonts.googleapis.com%2Fcss%3Ffamily%3DArchitects%2BDaughter;fontSize=20;" vertex="1" parent="1">
                    <mxGeometry x="518" y="87" width="1" height="36" as="geometry"/>
                </mxCell>
                <mxCell id="167" value="" style="shape=stencil(lZTdboMwDIWfJrdHSRzHyXXXvUel0oHGoKJ0W9++ICat/EXKnWPOx7FxsKLDrTxdC2X1re/az+KnOvelojdlbdWURVf1Q6ToqOhwabvio2vvzXk6X0+jcoy+2u/xDb8Tp6H1CFn9WCTeJ3ldNSm5ScrXegcT9vXEEDPTBzDt6x1BeF6PgYn7AHvYBcDwsg/4sHQYWrYJIJilgxVYlwAEPP9GRIh+H4irpp1O9mD0egwCSVhsEOwQOIvwBpxXlRdEk0UIgTOJYaCJG7VBBILN8wgeMTHxLSIi5lUVLTjPIzpI4t/bIgQ6r/MYcufxkvpDhuB/W12qup6W3evz5XYbUtNmpOMT);fillColor=none;sketch=0;hachureGap=4;fontFamily=Architects Daughter;fontSource=https%3A%2F%2Ffonts.googleapis.com%2Fcss%3Ffamily%3DArchitects%2BDaughter;fontSize=20;" vertex="1" parent="1">
                    <mxGeometry x="646" y="374" width="2" height="33.5" as="geometry"/>
                </mxCell>
                <mxCell id="168" value="" style="shape=stencil(nVXbbsMwCP0avyIbfOO56/6jUtPFWpZUabrL38+RH1bFqSX2Rsg5mIPBKDrc+tO1U6hvyzy9d1/pvPSKXhRiGvtuTku2FB0VHS7T3L3N0308l+/raUWu1sf0uUb4LjwNWq8k1D8bx2uBD2lswQ0QC+AERAK4B+cE8CiLbgxYL8E7MKLaMGAQ4HN1WJJP1usl5SGCKMIzaEk+1sr0WgYbBXhnwUuazTGQJL63Mr0+QpDUMyAwPscbBLch5P5vJISuGgANaJ4TKGxPiO2WcPWIeeBGTX2lITK4BiFUGhjBNG45Vhq43XZGVyLYQWw8FHuMALYx+nuMPJyNq9hhPLj+T8nG31N/ScNQNsXj/+1qyK6yVuj4Cw==);fillColor=none;sketch=0;hachureGap=4;fontFamily=Architects Daughter;fontSource=https%3A%2F%2Ffonts.googleapis.com%2Fcss%3Ffamily%3DArchitects%2BDaughter;fontSize=20;" vertex="1" parent="1">
                    <mxGeometry x="688" y="374" width="1" height="24" as="geometry"/>
                </mxCell>
                <mxCell id="173" value="" style="shape=stencil(lVbLcsIwDPyaXHds+SWfKf0PZoCSKSVMoK+/r5nM0BJRtbo5zq5taaW1u7A47VbHTUfudB6H5817vz7vuvDQEfWH3Wbsz23UhWUXFtth3DyNw+thPX0fVxfkZfQyvF1W+Jh43jk4d6GR+5ymrhOPE2HfH/4ixGQieDg2EQiBTIQA8iZCRLUFnVGDiVBB1ZYlgs82RkIoNgaj2jLbtMjxd0YNKOmWkJGULbggzbRr9aSIxx50u0OIampLEtXB8EoBZp7HEAlOkSLl+ZFiQlF2iCJLsaolHkTQiVCUiiURdGpHUoTzIujEyFoT0Vy47BEVHUSScoRTYpYtlxGU9SX+GtL/8MWhmvABXsmoxLf2NOELSJFY4hlsyQ/rjSbxHsm0PiEqHinxzbW1tpzXT8NreskC5YismbZoAU6q2ckm4wzW2liYHetWlGSSKlixoiyCrk01JUvSHZuFkxK09N8aUZQjSYevGV4pPHmH1IJgu54rq715n6FJd49RrRd0Y2gOeZ9RjFe6Mz/gJKUNvl+M236/nx6cP//PX5htanqdhuUX);fillColor=none;sketch=0;hachureGap=4;fontFamily=Architects Daughter;fontSource=https%3A%2F%2Ffonts.googleapis.com%2Fcss%3Ffamily%3DArchitects%2BDaughter;fontSize=20;" vertex="1" parent="1">
                    <mxGeometry x="826.8" y="344.4000000000001" width="1.6" height="59.2" as="geometry"/>
                </mxCell>
                <mxCell id="174" value="" style="shape=stencil(lVfLbhsxDPyavRKSKIrUOU3/I0Cc2qhrB47TNn8fbhdGI7alytuudmbBx3AkLXj3sn943i0lvVwv56+7H4fH637BT0sph9N+dzlc9WnB+wXvns6X3ZfL+fX0uL0/P6zI9enb+fv6h58bL0FKK6mkt22hNWj8a+Xzhj8eTgMeQ/gMvUXwCNIj+Ao9R/ANJITvkGP5ZmAOESo0CREYJBSS9iBTiFCBS4ggUEJdwwwSkwUBhqqEcvt8I3ACQUdI2ZaV6TYbfydUoDFpVrF4UmXbB0FAL6QOZAgM5IREmkMdCD27VSK049nJrRI1SDgQckpumUgg1Rijg0iI0bIV7JSBUCmSeCPIJVJa1SePeU+a18Ra60QerQOPOUwEyBmSUawvcS5QDcEfIsbb5/8cUw0gh+ySG1DIwFntMuR+axFDZiYJKGSXEnU/FUKKhVShhKokBCXUB2lQTNLFlbeqP419UGfw5K0EoyWqrrxFgMaykm8C0u22VX0TUIKxy+qbQE/QxhzQNwE1lTK6BvomoAQj7xmhWLXOCAg5FhJCG8tafF/qqtbR+YrvS0poY0jF9yU1dzNAeXLsI6hmD/LlvW4f4wD56u7NTqgvbsXTmLKvbcVLieDZHnSn+IoxPOcYvvcIXqyBTfE1+P/WYnhziJngu7XHKb6E+tsBQ/n+cfac4jmkn24vej7+w4HuXwR9+H3LfTocj9sl+eN3eyvWpe1Gjffv);fillColor=none;sketch=0;hachureGap=4;fontFamily=Architects Daughter;fontSource=https%3A%2F%2Ffonts.googleapis.com%2Fcss%3Ffamily%3DArchitects%2BDaughter;fontSize=20;" vertex="1" parent="1">
                    <mxGeometry x="650" y="405.20000000000005" width="179.2" height="2.4" as="geometry"/>
                </mxCell>
            </root>
        </mxGraphModel>
    </diagram>
</mxfile>